<?xml version="1.0" encoding="utf-8"?>
<!-- Generator: Adobe Illustrator 19.2.1, SVG Export Plug-In . SVG Version: 6.00 Build 0)  -->
<svg version="1.1" id="Capa_1" xmlns="http://www.w3.org/2000/svg" xmlns:xlink="http://www.w3.org/1999/xlink" x="0px" y="0px"
	 viewBox="0 0 283.5 283.5" style="enable-background:new 0 0 283.5 283.5;" xml:space="preserve">
<style type="text/css">
	.st0{fill:#004C8C;}
	.st1{display:none;fill:#004C8C;enable-background:new    ;}
	.st2{font-family:'FranklinGothic-Heavy';}
	.st3{font-size:14px;}
	.st4{display:none;fill:#FFFFFF;enable-background:new    ;}
	.st5{font-family:'FranklinGothic-Demi';}
	.st6{font-size:41px;}
	.st7{enable-background:new    ;}
	.st8{fill:#FFFFFF;}
</style>
<path class="st0" d="M254.1,11.2h-9.5c0-0.9,0.9-1.7,0.9-2.6c0-4.3-3.5-8.6-8.6-8.6s-8.6,3.5-8.6,8.6c0,0.9,0,1.7,0.9,2.6h-32
	c0-0.9,0.9-1.7,0.9-2.6c0-4.3-3.5-8.6-8.6-8.6c-4.3,0-8.6,3.5-8.6,8.6c0,0.9,0,1.7,0.9,2.6h-32c0-0.9,0.9-1.7,0.9-2.6
	c0-4.3-3.5-8.6-8.6-8.6c-5.2,0-8.6,3.5-8.6,8.6c0,0.9,0,1.7,0.9,2.6h-32c0-0.9,0.9-1.7,0.9-2.6c0-4.3-3.5-8.6-8.6-8.6
	c-4.3,0-8.6,3.5-8.6,8.6c0,0.9,0,1.7,0.9,2.6H55c0-0.9,0.9-1.7,0.9-2.6c0-4.3-3.5-8.6-8.6-8.6S38,3.4,38,8.6c0,0.9,0,1.7,0.9,2.6
	h-9.5c-13,0-24.2,10.4-24.2,23.3v224.7c0,13,10.4,24.2,24.2,24.2h197.9l51-51V34.5C277.4,21.6,267.1,11.2,254.1,11.2z M264.5,227.3
	l-2.6,2.6H242c-9.5,0-17.3,7.8-17.3,17.3v20.7l-2.6,2.6H29.4c-6.1,0-11.2-5.2-11.2-11.2V77.8h246.4v149.5H264.5z"/>
<text transform="matrix(1 0 0 1 61.6938 73.2156)" class="st1 st2 st3">2</text>
<text transform="matrix(1 0 0 1 39.3325 62.5518)" class="st4 st5 st6">Septembris</text>
<g class="st7"></g>
</svg>
