<?xml version="1.0" encoding="utf-8"?>
<!-- Generator: Adobe Illustrator 19.2.1, SVG Export Plug-In . SVG Version: 6.00 Build 0)  -->
<svg version="1.1" id="Capa_1" xmlns="http://www.w3.org/2000/svg" xmlns:xlink="http://www.w3.org/1999/xlink" x="0px" y="0px"
	 viewBox="0 0 283.5 283.5" style="enable-background:new 0 0 283.5 283.5;" xml:space="preserve">
<style type="text/css">
	.st0{fill:#334C0B;}
	.st1{display:none;fill:#D97510;enable-background:new    ;}
	.st2{font-family:'FranklinGothic-Heavy';}
	.st3{font-size:14px;}
	.st4{display:none;fill:#FFFFFF;enable-background:new    ;}
	.st5{font-family:'FranklinGothic-Demi';}
	.st6{font-size:41px;}
	.st7{enable-background:new    ;}
	.st8{fill:#FFFFFF;}
</style>
<path class="st0" d="M254.1,11.2h-9.5c0-0.9,0.9-1.7,0.9-2.6c0-4.3-3.5-8.6-8.6-8.6s-8.6,3.5-8.6,8.6c0,0.9,0,1.7,0.9,2.6h-32
	c0-0.9,0.9-1.7,0.9-2.6c0-4.3-3.5-8.6-8.6-8.6c-4.3,0-8.6,3.5-8.6,8.6c0,0.9,0,1.7,0.9,2.6h-32c0-0.9,0.9-1.7,0.9-2.6
	c0-4.3-3.5-8.6-8.6-8.6c-5.2,0-8.6,3.5-8.6,8.6c0,0.9,0,1.7,0.9,2.6h-32c0-0.9,0.9-1.7,0.9-2.6c0-4.3-3.5-8.6-8.6-8.6
	c-4.3,0-8.6,3.5-8.6,8.6c0,0.9,0,1.7,0.9,2.6H55c0-0.9,0.9-1.7,0.9-2.6c0-4.3-3.5-8.6-8.6-8.6S38,3.4,38,8.6c0,0.9,0,1.7,0.9,2.6
	h-9.5c-13,0-24.2,10.4-24.2,23.3v224.7c0,13,10.4,24.2,24.2,24.2h197.9l51-51V34.5C277.4,21.6,267.1,11.2,254.1,11.2z M264.5,227.3
	l-2.6,2.6H242c-9.5,0-17.3,7.8-17.3,17.3v20.7l-2.6,2.6H29.4c-6.1,0-11.2-5.2-11.2-11.2V77.8h246.4v149.5H264.5z"/>
<text transform="matrix(1 0 0 1 61.6938 73.2156)" class="st1 st2 st3">4</text>
<path class="st0" d="M175,188.4h-11.2v18.2h-22.5v-18.2h-32.8v-17.3l30.3-46.7h25.1v46.7H175V188.4z M142.2,170.3v-24.2l-15.6,24.2
	H142.2z"/>
<text transform="matrix(1 0 0 1 39.3325 62.5518)" class="st4 st5 st6">Septembris</text>
<g class="st7">
	<path class="st8" d="M61,41.2L55.6,43c-0.7-2.2-2.3-3.2-4.7-3.2c-2.5,0-3.8,0.8-3.8,2.5c0,0.7,0.2,1.2,0.7,1.7s1.5,0.8,3.2,1.2
		c2.8,0.6,4.8,1.1,6.1,1.7c1.3,0.6,2.4,1.5,3.3,2.8c0.9,1.3,1.3,2.7,1.3,4.3c0,2.5-1,4.6-2.9,6.4c-1.9,1.8-4.7,2.7-8.5,2.7
		c-2.8,0-5.2-0.6-7.2-1.9s-3.3-3.2-3.9-5.7l5.9-1.3c0.7,2.5,2.5,3.8,5.6,3.8c1.5,0,2.6-0.3,3.3-0.9s1.1-1.2,1.1-2s-0.3-1.4-1-1.9
		c-0.7-0.4-1.9-0.9-3.8-1.2c-3.5-0.7-6-1.7-7.4-3c-1.5-1.2-2.2-3.1-2.2-5.5s0.9-4.5,2.6-6.1c1.8-1.7,4.2-2.5,7.2-2.5
		C56,34.8,59.4,36.9,61,41.2z"/>
	<path class="st8" d="M83.8,53.4h-13c0,0.4,0,0.7,0,0.9c0,1.4,0.4,2.5,1.2,3.3c0.8,0.7,1.7,1.1,2.8,1.1c2,0,3.2-1.1,3.6-3.2l5.4,0.4
		c-1.5,4.7-4.6,7-9.2,7c-2,0-3.7-0.4-5.1-1.2s-2.6-2-3.5-3.5s-1.4-3.4-1.4-5.6c0-3.2,0.9-5.8,2.8-7.8c1.8-2,4.2-3,7.1-3
		c2.6,0,4.8,0.9,6.7,2.8C82.8,46.5,83.8,49.4,83.8,53.4z M70.7,50h7.2c-0.2-2.8-1.3-4.2-3.4-4.2C72.2,45.8,71,47.2,70.7,50z"/>
	<path class="st8" d="M87.5,69.4v-27H93v3c1-2.3,2.8-3.4,5.3-3.4c2.2,0,4,0.9,5.4,2.6c1.4,1.8,2.1,4.3,2.1,7.7
		c0,3.6-0.7,6.2-2.1,8.1s-3.2,2.7-5.5,2.7s-3.9-0.9-4.9-2.7v9.1L87.5,69.4L87.5,69.4z M93.3,53.7c0,1.4,0.1,2.4,0.3,3
		c0.2,0.5,0.5,1,1.1,1.5s1.2,0.7,1.8,0.7c0.8,0,1.5-0.4,2.2-1.3s1-2.7,1-5.5c0-4-1.1-6-3.2-6c-0.8,0-1.5,0.4-2.2,1.1
		c-0.7,0.7-1,1.9-1,3.6C93.3,50.8,93.3,53.7,93.3,53.7z"/>
	<path class="st8" d="M116.6,47v8.5c0,1.1,0.2,1.8,0.5,2.1c0.3,0.4,1.1,0.5,2.3,0.5c0.5,0,1.2,0,1.9-0.1v4.4c-1.7,0.3-3,0.4-3.7,0.4
		c-2.5,0-4.2-0.5-5.3-1.4c-1-1-1.6-2.7-1.6-5.2V47h-3.2v-4.6h3.5l0.5-6l5.1-0.4v6.4h4.3V47H116.6z"/>
	<path class="st8" d="M142.2,53.4h-13c0,0.4,0,0.7,0,0.9c0,1.4,0.4,2.5,1.2,3.3c0.8,0.7,1.7,1.1,2.8,1.1c2,0,3.2-1.1,3.6-3.2
		l5.4,0.4c-1.5,4.7-4.6,7-9.2,7c-2,0-3.7-0.4-5.1-1.2s-2.6-2-3.5-3.5s-1.4-3.4-1.4-5.6c0-3.2,0.9-5.8,2.8-7.8c1.8-2,4.2-3,7.1-3
		c2.6,0,4.8,0.9,6.7,2.8C141.3,46.5,142.2,49.4,142.2,53.4z M129.2,50h7.2c-0.2-2.8-1.3-4.2-3.4-4.2C130.7,45.8,129.4,47.2,129.2,50
		z"/>
	<path class="st8" d="M174.9,62.6h-6V51.4c0-1.6,0-2.6-0.1-3.1s-0.3-0.9-0.7-1.2s-0.9-0.5-1.6-0.5c-0.7,0-1.3,0.2-2,0.7s-1,1.8-1,4
		v11.2h-6V51.4c0-1.6-0.1-2.7-0.2-3.1c-0.1-0.5-0.4-0.9-0.8-1.2c-0.4-0.3-0.9-0.4-1.6-0.4c-1,0-1.8,0.3-2.3,1
		c-0.5,0.6-0.8,1.9-0.8,3.8v11.2H146V42.3h5.6v3.1c0.9-2.3,2.8-3.5,5.7-3.5c2.6,0,4.4,1.2,5.6,3.5c1.1-2.3,3.1-3.5,5.9-3.5
		c1.3,0,2.5,0.3,3.4,0.8c1,0.5,1.6,1.3,2.1,2.1s0.6,2.4,0.6,4.5L174.9,62.6L174.9,62.6z"/>
	<path class="st8" d="M185.7,35.2v9.6c1.1-2,2.7-3,5-3s4.2,0.9,5.5,2.8c1.3,1.9,2,4.4,2,7.7c0,3.1-0.7,5.7-2.1,7.6
		c-1.4,1.9-3.4,2.9-6,2.9c-1.4,0-2.5-0.2-3.3-0.7c-0.9-0.5-1.7-1.4-2.6-2.8c-0.4,0.4-0.8,1.4-1.3,3.1h-3.2V35.2H185.7z M185.7,54.5
		c0,1.4,0.3,2.5,0.9,3.2c0.6,0.7,1.3,1.1,2.1,1.1c1,0,1.8-0.4,2.4-1.3c0.6-0.9,1-2.6,1-5.1c0-2.9-0.3-4.7-1-5.4s-1.4-1.1-2.3-1.1
		c-1,0-1.7,0.4-2.3,1.2s-0.9,2-0.9,3.5v3.9H185.7z"/>
	<path class="st8" d="M207.9,62.6h-5.8V42.3h5.5v3.8c0.8-2.8,2.3-4.2,4.4-4.2c0.3,0,0.7,0,1.1,0.1v5.9c-1.2,0-2.2,0.2-2.8,0.6
		c-0.7,0.4-1.2,1-1.7,2s-0.6,2.3-0.6,3.9L207.9,62.6L207.9,62.6z"/>
	<path class="st8" d="M222.3,34.7v6h-6v-6H222.3z M222.3,42.3v20.2h-6V42.3H222.3z"/>
	<path class="st8" d="M242.3,47.2l-4.3,1.2c-0.5-1.8-1.8-2.7-3.9-2.7c-2,0-3,0.6-3,1.8c0,0.5,0.2,0.9,0.5,1.2
		c0.4,0.3,1.3,0.5,2.9,0.7c2.3,0.3,4,0.7,5.1,1.1s2,1.1,2.6,2s1,2.1,1,3.5c0,2.1-0.8,3.8-2.4,5.1c-1.6,1.3-3.8,2-6.6,2
		c-5.2,0-8.2-2-9.2-6l5-0.7c0.4,1.8,1.9,2.7,4.5,2.7c1,0,1.8-0.2,2.5-0.5s1-0.8,1-1.4c0-0.9-0.8-1.5-2.3-1.7
		c-4.1-0.5-6.8-1.3-8.1-2.3c-1.3-1.1-1.9-2.5-1.9-4.4s0.7-3.5,2.2-4.8s3.6-1.9,6.3-1.9c2.1,0,3.8,0.4,5.1,1.3S241.6,45.4,242.3,47.2
		z"/>
</g>
</svg>
