<?xml version="1.0" encoding="UTF-8" standalone="no"?>
<!-- Generator: Adobe Illustrator 25.0.0, SVG Export Plug-In . SVG Version: 6.00 Build 0)  -->

<svg
   version="1.1"
   id="Layer_1"
   x="0px"
   y="0px"
   viewBox="0 0 266.9 266.9"
   style="enable-background:new 0 0 266.9 266.9;"
   xml:space="preserve"
   sodipodi:docname="facebook.svg"
   inkscape:version="1.2.2 (732a01da63, 2022-12-09)"
   xmlns:inkscape="http://www.inkscape.org/namespaces/inkscape"
   xmlns:sodipodi="http://sodipodi.sourceforge.net/DTD/sodipodi-0.dtd"
   xmlns="http://www.w3.org/2000/svg"
   xmlns:svg="http://www.w3.org/2000/svg"><defs
   id="defs33" /><sodipodi:namedview
   id="namedview31"
   pagecolor="#ffffff"
   bordercolor="#000000"
   borderopacity="0.25"
   inkscape:showpageshadow="2"
   inkscape:pageopacity="0.0"
   inkscape:pagecheckerboard="0"
   inkscape:deskcolor="#d1d1d1"
   showgrid="false"
   inkscape:zoom="3.8478832"
   inkscape:cx="133.32006"
   inkscape:cy="133.32006"
   inkscape:window-width="2560"
   inkscape:window-height="1377"
   inkscape:window-x="2552"
   inkscape:window-y="560"
   inkscape:window-maximized="1"
   inkscape:current-layer="Layer_1" />
<style
   type="text/css"
   id="style26">
	.st0{fill:#004C8C;}
	.st1{fill:#FFFFFF;}
</style>
<path
   id="Blue_1_"
   class="st0"
   d="M248.1,262.3c7.9,0,14.2-6.4,14.2-14.2V18.8c0-7.9-6.4-14.2-14.2-14.2H18.8  C11,4.6,4.6,11,4.6,18.8v229.3c0,7.9,6.4,14.2,14.2,14.2L248.1,262.3L248.1,262.3z"
   style="fill:#3d915b;fill-opacity:1" />
<path
   id="f"
   class="st1"
   d="M182.4,262.3v-99.8h33.5l5-38.9h-38.5V98.8c0-11.3,3.1-18.9,19.3-18.9h20.6V45c-3.6-0.5-15.8-1.5-30-1.5  c-29.7,0-50,18.1-50,51.4v28.7h-33.6v38.9h33.6v99.8H182.4z" />
</svg>
