<?xml version="1.0" encoding="UTF-8" standalone="no"?>
<!-- Generator: Adobe Illustrator 25.0.0, SVG Export Plug-In . SVG Version: 6.00 Build 0)  -->

<svg
   version="1.1"
   id="Capa_1"
   x="0px"
   y="0px"
   viewBox="0 0 460.3 460.3"
   style="enable-background:new 0 0 460.3 460.3;"
   xml:space="preserve"
   sodipodi:docname="home.svg"
   inkscape:version="1.2.2 (732a01da63, 2022-12-09)"
   xmlns:inkscape="http://www.inkscape.org/namespaces/inkscape"
   xmlns:sodipodi="http://sodipodi.sourceforge.net/DTD/sodipodi-0.dtd"
   xmlns="http://www.w3.org/2000/svg"
   xmlns:svg="http://www.w3.org/2000/svg"><defs
   id="defs24" /><sodipodi:namedview
   id="namedview22"
   pagecolor="#ffffff"
   bordercolor="#000000"
   borderopacity="0.25"
   inkscape:showpageshadow="2"
   inkscape:pageopacity="0.0"
   inkscape:pagecheckerboard="0"
   inkscape:deskcolor="#d1d1d1"
   showgrid="false"
   inkscape:zoom="2.2311537"
   inkscape:cx="230.37409"
   inkscape:cy="229.92589"
   inkscape:window-width="2560"
   inkscape:window-height="1377"
   inkscape:window-x="2552"
   inkscape:window-y="560"
   inkscape:window-maximized="1"
   inkscape:current-layer="Capa_1" />
<style
   type="text/css"
   id="style11">
	.st0{fill:#004C8C;}
</style>
<g
   id="g19">
	<g
   id="g17">
		<path
   class="st0"
   d="M230.1,120.9L66,256.3c0,0.2,0,0.5-0.1,0.9s-0.1,0.7-0.1,0.9v137c0,4.9,1.8,9.2,5.4,12.8    c3.6,3.6,7.9,5.4,12.8,5.4h109.6V303.7h73.1v109.6h109.6c4.9,0,9.2-1.8,12.8-5.4c3.6-3.6,5.4-7.9,5.4-12.8V258    c0-0.8-0.1-1.3-0.3-1.7L230.1,120.9z"
   id="path13"
   style="fill:#3d915b;fill-opacity:1" />
		<path
   class="st0"
   d="M457.1,225.4l-62.5-52V57c0-2.7-0.9-4.9-2.6-6.6c-1.7-1.7-3.9-2.6-6.6-2.6h-54.8c-2.7,0-4.9,0.9-6.6,2.6    c-1.7,1.7-2.6,3.9-2.6,6.6v55.7l-69.7-58.2c-6.1-4.9-13.3-7.4-21.7-7.4s-15.6,2.5-21.7,7.4L3.2,225.4c-1.9,1.6-3,3.6-3.2,6.2    s0.5,4.8,2,6.7l17.7,21.1c1.5,1.7,3.5,2.8,6,3.1c2.3,0.2,4.6-0.5,6.9-2L230.1,95.8l197.6,164.7c1.5,1.3,3.5,2,6,2h0.9    c2.5-0.4,4.5-1.4,6-3.1l17.7-21.1c1.5-1.9,2.2-4.1,2-6.7S459,227,457.1,225.4z"
   id="path15"
   style="fill:#3d915b;fill-opacity:1" />
	</g>
</g>
</svg>
